<svg xmlns="http://www.w3.org/2000/svg" xml:space="preserve" width="136.214" height="136.214" viewBox="0 0 36.04 36.04"><path d="M45.94 2.447h36.04v36.04H45.94z" style="opacity:.973274;fill:#fff;stroke:none;stroke-width:.1" transform="translate(-45.94 -2.447)"/><path d="m46.301 11.516 2.542-1.854.857-.445 1.132-.853.774-.742.276-.037.166-.445 1.381-1.298.387-.185.36.074.22-.223h.277l.884-.63.331-.037.277.111.884-.593 1.243-.297.194.037 1.022.742.276.185.442.26.58.482.387.241.47.223.525-.149 1.299-.63.787-.63.995-.928.22-.167.18.26.014.52c.019.141.037.284.058.367.02.083.044.108.046.136.002.028-.016.059.078.164.095.105.302.284.428.374.127.09.173.09.263.049.09-.04.223-.12.29-.198.067-.077.067-.151.09-.24.023-.09.069-.195.096-.279.028-.083.037-.145.083-.238a.77.77 0 0 1 .221-.278.276.276 0 0 1 .274-.025c.08.037.14.112.157.18.016.068-.012.13.053.222.064.093.22.216.318.312a.737.737 0 0 1 .156.21c.023.047.032.071.067.112.034.04.094.095.136.136.041.04.064.065.133.114.07.05.185.124.29.17a.459.459 0 0 0 .293.043c.09-.022.172-.083.308-.18.136-.095.325-.225.445-.296.12-.07.17-.083.24-.055.068.027.156.095.243.157.088.062.175.118.297.176.122.06.279.12.424.167.145.047.279.077.419.14.14.061.288.154.424.24.135.087.26.167.34.214.081.046.118.058.164.08.046.022.101.053.173.099.07.046.158.108.237.12.078.013.147-.024.347.044.2.068.532.24.85.473.318.231.622.522.88.713.257.192.47.285.614.319.145.034.224.009.428.099.205.09.537.293.772.463.235.17.373.306.628.513.256.207.629.485.924.643.294.158.51.195.736.253.226.06.46.14.604.177.142.037.193.03.28.049.088.019.212.062.399.158.186.095.435.244.622.38.186.136.31.26.435.383" style="display:inline;fill:#fff;stroke:#000;stroke-width:.75;stroke-linecap:butt;stroke-linejoin:miter;stroke-opacity:1" transform="translate(-45.94 -2.447)"/><g style="display:inline"><g style="stroke-width:.453372"><path d="m77.309 24.91-7.799-3.676 6.385-5.804 8.548 1.953zM69.33 21.196l-5.081-2.403 5.695-4.725 5.756 1.333zM64.112 18.769l-3.584-1.702 5.121-3.968 4.157.966zM60.428 17.045l-2.666-1.265 4.62-3.42 3.147.738z" style="fill:none;stroke:#000;stroke-width:.453372;stroke-linecap:butt;stroke-linejoin:miter;stroke-opacity:1" transform="matrix(1.07434 0 0 1.1321 -57.344 7.244)"/></g></g><g style="display:inline"><text xml:space="preserve" x="46.745" y="23.158" style="font-style:normal;font-variant:normal;font-weight:300;font-stretch:condensed;font-size:14.1111px;line-height:1.25;font-family:&quot;Fira Sans Condensed&quot;;-inkscape-font-specification:&quot;Fira Sans Condensed, Light Condensed&quot;;font-variant-ligatures:normal;font-variant-caps:normal;font-variant-numeric:normal;font-variant-east-asian:normal;display:inline;fill:#000;fill-opacity:1;stroke:none;stroke-width:.127162" transform="translate(-45.94 -2.447)"><tspan x="46.745" y="23.158" style="font-style:normal;font-variant:normal;font-weight:300;font-stretch:condensed;font-size:14.1111px;font-family:&quot;Fira Sans Condensed&quot;;-inkscape-font-specification:&quot;Fira Sans Condensed, Light Condensed&quot;;font-variant-ligatures:normal;font-variant-caps:normal;font-variant-numeric:normal;font-variant-east-asian:normal;fill:#000;stroke-width:.127162">P</tspan></text><text xml:space="preserve" x="59.489" y="22.772" style="font-style:normal;font-variant:normal;font-weight:300;font-stretch:condensed;font-size:14.1111px;line-height:1.25;font-family:&quot;Fira Sans Condensed&quot;;-inkscape-font-specification:&quot;Fira Sans Condensed, Light Condensed&quot;;font-variant-ligatures:normal;font-variant-caps:normal;font-variant-numeric:normal;font-variant-east-asian:normal;display:inline;fill:#000;fill-opacity:1;stroke:none;stroke-width:.127162" transform="translate(-45.94 -2.447)"><tspan x="59.489" y="22.772" style="font-style:normal;font-variant:normal;font-weight:300;font-stretch:condensed;font-size:14.1111px;font-family:&quot;Fira Sans Condensed&quot;;-inkscape-font-specification:&quot;Fira Sans Condensed, Light Condensed&quot;;font-variant-ligatures:normal;font-variant-caps:normal;font-variant-numeric:normal;font-variant-east-asian:normal;fill:#000;stroke-width:.127162">S</tspan></text><text xml:space="preserve" x="70.752" y="22.822" style="font-style:normal;font-variant:normal;font-weight:300;font-stretch:condensed;font-size:14.1111px;line-height:1.25;font-family:&quot;Fira Sans Condensed&quot;;-inkscape-font-specification:&quot;Fira Sans Condensed, Light Condensed&quot;;font-variant-ligatures:normal;font-variant-caps:normal;font-variant-numeric:normal;font-variant-east-asian:normal;display:inline;fill:#000;fill-opacity:1;stroke:none;stroke-width:.141976" transform="translate(-45.94 -2.447)"><tspan x="70.752" y="22.822" style="font-style:normal;font-variant:normal;font-weight:300;font-stretch:condensed;font-size:14.1111px;font-family:&quot;Fira Sans Condensed&quot;;-inkscape-font-specification:&quot;Fira Sans Condensed, Light Condensed&quot;;font-variant-ligatures:normal;font-variant-caps:normal;font-variant-numeric:normal;font-variant-east-asian:normal;fill:#000;stroke-width:.141976">M</tspan></text></g><ellipse cx="48.516" cy="4.7" rx="1.31" ry="1.199" style="opacity:.973274;fill:#ff0;fill-opacity:1;stroke:none;stroke-width:.144855" transform="translate(-45.94 -2.447)"/></svg>