<svg width="688.725" height="318.579" viewBox="0 0 182.225 84.291" xmlns="http://www.w3.org/2000/svg"><path style="opacity:.973274;fill:#fff;stroke:#fff;stroke-width:.0974106" d="M19.72 9.228h182.128v84.193H19.72z" transform="translate(-19.672 -9.179)"/><path style="opacity:.973274;fill:#666;stroke:#666;stroke-width:1.02076" d="M60.761 15.469h53.054v49.925H60.761z"/><path d="M7.472 57.385h6.912V43.106l9.789 14.28H32.7L22.609 43.61c2.876-.707 4.288-1.363 5.903-2.725 2.573-2.17 3.835-5.096 3.835-8.83 0-3.834-1.363-7.013-3.936-9.183-2.422-2.068-5.096-2.775-10.192-2.775H7.472Zm6.912-19.476V26.708h3.078c3.23 0 4.995.353 6.105 1.312 1.211.958 1.817 2.422 1.817 4.238 0 3.936-2.27 5.651-7.62 5.651zM37.443 57.385h20.03v-6.61H44.356v-8.678h12.564v-6.61H44.355v-8.779h13.119v-6.61H37.443Z" style="font-weight:600;font-size:96px;line-height:1.25;font-family:'URW Gothic';-inkscape-font-specification:'URW Gothic, Semi-Bold';white-space:pre;stroke-width:.525581"/><path d="M66.679 57.385h6.912V42.097h11.504v-6.61H73.591v-8.779H85.65v-6.61H66.679Z" style="font-weight:600;font-size:96px;line-height:1.25;font-family:'URW Gothic';-inkscape-font-specification:'URW Gothic, Semi-Bold';white-space:pre;fill:#fff;stroke-width:.525581"/><path d="M95.388 57.385h6.912V26.708h6.913v-6.61H85.544l.015 6.594 9.829.016z" style="font-weight:600;font-size:96px;line-height:1.25;font-family:'URW Gothic';-inkscape-font-specification:'URW Gothic, Semi-Bold';white-space:pre;fill:#fff;stroke-width:.525581"/><path d="M118.036 57.385h20.031v-6.61H124.95v-8.678h12.563v-6.61H124.95v-8.779h13.118v-6.61h-20.03zM141.246 57.385h8.224l8.679-12.866 8.93 12.866h8.023l-12.917-18.568 12.917-18.719h-8.023l-8.93 13.018-8.679-13.018h-8.224l12.816 18.72z" style="font-weight:600;font-size:96px;line-height:1.25;font-family:'URW Gothic';-inkscape-font-specification:'URW Gothic, Semi-Bold';white-space:pre;stroke-width:.525581"/><path style="fill:#999;stroke:#666;stroke-width:4.83089;stroke-linecap:butt;stroke-linejoin:miter;stroke-opacity:1" d="M60.25 63.488H5.598M176.222 63.488h-61.897"/></svg>